<mxfile host="app.diagrams.net" modified="2023-04-30T04:40:14.486Z" agent="Mozilla/5.0 (Windows NT 10.0; Win64; x64) AppleWebKit/537.36 (KHTML, like Gecko) Chrome/112.0.0.0 Safari/537.36" etag="Q_hqO64bzVV_UFxSHHlk" version="21.2.3" type="device">
  <diagram id="C5RBs43oDa-KdzZeNtuy" name="Page-1">
    <mxGraphModel dx="1859" dy="522" grid="1" gridSize="10" guides="1" tooltips="1" connect="1" arrows="1" fold="1" page="1" pageScale="1" pageWidth="827" pageHeight="1169" math="0" shadow="0">
      <root>
        <mxCell id="WIyWlLk6GJQsqaUBKTNV-0" />
        <mxCell id="WIyWlLk6GJQsqaUBKTNV-1" parent="WIyWlLk6GJQsqaUBKTNV-0" />
        <mxCell id="ADbTayrC-Ze4ekN7dhju-61" value="" style="group" parent="WIyWlLk6GJQsqaUBKTNV-1" vertex="1" connectable="0">
          <mxGeometry y="80" width="1070" height="1360" as="geometry" />
        </mxCell>
        <mxCell id="WIyWlLk6GJQsqaUBKTNV-2" value="" style="rounded=0;html=1;jettySize=auto;orthogonalLoop=1;fontSize=11;endArrow=block;endFill=0;endSize=8;strokeWidth=1;shadow=0;labelBackgroundColor=none;edgeStyle=orthogonalEdgeStyle;" parent="ADbTayrC-Ze4ekN7dhju-61" source="WIyWlLk6GJQsqaUBKTNV-3" edge="1">
          <mxGeometry relative="1" as="geometry">
            <mxPoint x="158.9108910891089" y="94.15384615384616" as="targetPoint" />
          </mxGeometry>
        </mxCell>
        <mxCell id="WIyWlLk6GJQsqaUBKTNV-3" value="&lt;font style=&quot;font-size: 22px;&quot;&gt;start&lt;/font&gt;" style="rounded=1;whiteSpace=wrap;html=1;fontSize=12;glass=0;strokeWidth=1;shadow=0;" parent="ADbTayrC-Ze4ekN7dhju-61" vertex="1">
          <mxGeometry x="95.34653465346535" width="127.12871287128712" height="41.84615384615385" as="geometry" />
        </mxCell>
        <mxCell id="WIyWlLk6GJQsqaUBKTNV-11" value="&lt;font style=&quot;font-size: 22px;&quot;&gt;end&lt;/font&gt;" style="rounded=1;whiteSpace=wrap;html=1;fontSize=12;glass=0;strokeWidth=1;shadow=0;" parent="ADbTayrC-Ze4ekN7dhju-61" vertex="1">
          <mxGeometry x="619.7524752475248" y="1067.076923076923" width="127.12871287128712" height="41.84615384615385" as="geometry" />
        </mxCell>
        <mxCell id="ADbTayrC-Ze4ekN7dhju-0" value="&lt;font style=&quot;font-size: 14px;&quot;&gt;1.set up 成功與不成功&lt;br&gt;變數用來計算平均收尋次數&lt;br&gt;2.創建一個2次方探勘的table&lt;/font&gt;" style="rounded=0;whiteSpace=wrap;html=1;" parent="ADbTayrC-Ze4ekN7dhju-61" vertex="1">
          <mxGeometry x="68.86138613861387" y="94.15384615384616" width="180.0990099009901" height="94.15384615384616" as="geometry" />
        </mxCell>
        <mxCell id="ADbTayrC-Ze4ekN7dhju-4" value="&lt;font style=&quot;font-size: 14px;&quot;&gt;For 迴圈輸出資料&lt;br&gt;直到無資料為止&lt;/font&gt;" style="rhombus;whiteSpace=wrap;html=1;rounded=0;" parent="ADbTayrC-Ze4ekN7dhju-61" vertex="1">
          <mxGeometry x="100.64356435643563" y="261.5384615384616" width="116.53465346534654" height="146.46153846153848" as="geometry" />
        </mxCell>
        <mxCell id="ADbTayrC-Ze4ekN7dhju-9" style="edgeStyle=orthogonalEdgeStyle;rounded=0;orthogonalLoop=1;jettySize=auto;html=1;entryX=0.5;entryY=0;entryDx=0;entryDy=0;" parent="ADbTayrC-Ze4ekN7dhju-61" source="ADbTayrC-Ze4ekN7dhju-0" target="ADbTayrC-Ze4ekN7dhju-4" edge="1">
          <mxGeometry relative="1" as="geometry" />
        </mxCell>
        <mxCell id="ADbTayrC-Ze4ekN7dhju-8" value="&lt;font style=&quot;font-size: 14px;&quot;&gt;開啟Quadratic_probing資料&lt;br&gt;輸入新資料直到無為止&lt;/font&gt;" style="rounded=0;whiteSpace=wrap;html=1;" parent="ADbTayrC-Ze4ekN7dhju-61" vertex="1">
          <mxGeometry x="593.2673267326733" y="439.3846153846155" width="180.0990099009901" height="104.61538461538463" as="geometry" />
        </mxCell>
        <mxCell id="ADbTayrC-Ze4ekN7dhju-6" style="edgeStyle=orthogonalEdgeStyle;rounded=0;orthogonalLoop=1;jettySize=auto;html=1;entryX=0.5;entryY=0;entryDx=0;entryDy=0;" parent="ADbTayrC-Ze4ekN7dhju-61" source="ADbTayrC-Ze4ekN7dhju-4" target="ADbTayrC-Ze4ekN7dhju-8" edge="1">
          <mxGeometry relative="1" as="geometry">
            <mxPoint x="480.5465087890625" y="470.76923076923083" as="targetPoint" />
          </mxGeometry>
        </mxCell>
        <mxCell id="ADbTayrC-Ze4ekN7dhju-12" style="edgeStyle=orthogonalEdgeStyle;rounded=0;orthogonalLoop=1;jettySize=auto;html=1;" parent="ADbTayrC-Ze4ekN7dhju-61" source="ADbTayrC-Ze4ekN7dhju-10" edge="1">
          <mxGeometry relative="1" as="geometry">
            <mxPoint x="158.9108910891089" y="680.0000000000001" as="targetPoint" />
          </mxGeometry>
        </mxCell>
        <mxCell id="ADbTayrC-Ze4ekN7dhju-10" value="&lt;font style=&quot;font-size: 14px;&quot;&gt;For 迴圈輸出學生&lt;br&gt;ID各字元&lt;/font&gt;" style="rhombus;whiteSpace=wrap;html=1;rounded=0;" parent="ADbTayrC-Ze4ekN7dhju-61" vertex="1">
          <mxGeometry x="99.31930693069307" y="460.3076923076924" width="119.18316831683167" height="115.0769230769231" as="geometry" />
        </mxCell>
        <mxCell id="ADbTayrC-Ze4ekN7dhju-11" style="edgeStyle=orthogonalEdgeStyle;rounded=0;orthogonalLoop=1;jettySize=auto;html=1;entryX=0.5;entryY=0;entryDx=0;entryDy=0;" parent="ADbTayrC-Ze4ekN7dhju-61" source="ADbTayrC-Ze4ekN7dhju-4" target="ADbTayrC-Ze4ekN7dhju-10" edge="1">
          <mxGeometry relative="1" as="geometry" />
        </mxCell>
        <mxCell id="ADbTayrC-Ze4ekN7dhju-13" value="&lt;font style=&quot;font-size: 15px;&quot;&gt;各字元相乘並且mod&lt;br&gt;table總大小&lt;/font&gt;" style="rounded=0;whiteSpace=wrap;html=1;" parent="ADbTayrC-Ze4ekN7dhju-61" vertex="1">
          <mxGeometry x="95.34653465346535" y="627.6923076923077" width="127.12871287128712" height="62.76923076923079" as="geometry" />
        </mxCell>
        <mxCell id="ADbTayrC-Ze4ekN7dhju-16" value="&lt;font style=&quot;font-size: 15px;&quot;&gt;For 迴圈k=0;;k++&lt;/font&gt;" style="rhombus;whiteSpace=wrap;html=1;rounded=0;" parent="ADbTayrC-Ze4ekN7dhju-61" vertex="1">
          <mxGeometry x="99.31930693069307" y="753.2307692307693" width="119.18316831683167" height="115.0769230769231" as="geometry" />
        </mxCell>
        <mxCell id="ADbTayrC-Ze4ekN7dhju-15" value="" style="edgeStyle=orthogonalEdgeStyle;rounded=0;orthogonalLoop=1;jettySize=auto;html=1;entryX=0.5;entryY=0;entryDx=0;entryDy=0;" parent="ADbTayrC-Ze4ekN7dhju-61" source="ADbTayrC-Ze4ekN7dhju-13" target="ADbTayrC-Ze4ekN7dhju-16" edge="1">
          <mxGeometry relative="1" as="geometry">
            <mxPoint x="158.9108910891089" y="753.2307692307693" as="targetPoint" />
          </mxGeometry>
        </mxCell>
        <mxCell id="ADbTayrC-Ze4ekN7dhju-37" style="edgeStyle=orthogonalEdgeStyle;rounded=0;orthogonalLoop=1;jettySize=auto;html=1;entryX=0;entryY=0.5;entryDx=0;entryDy=0;" parent="ADbTayrC-Ze4ekN7dhju-61" source="ADbTayrC-Ze4ekN7dhju-20" target="ADbTayrC-Ze4ekN7dhju-4" edge="1">
          <mxGeometry relative="1" as="geometry">
            <Array as="points">
              <mxPoint y="1263.7538461538463" />
              <mxPoint y="334.7692307692308" />
            </Array>
          </mxGeometry>
        </mxCell>
        <mxCell id="ADbTayrC-Ze4ekN7dhju-20" value="&lt;font style=&quot;font-size: 14px;&quot;&gt;找到位置後把資料存入Quadratic_table&lt;br&gt;break&lt;/font&gt;" style="rounded=0;whiteSpace=wrap;html=1;" parent="ADbTayrC-Ze4ekN7dhju-61" vertex="1">
          <mxGeometry x="100.64356435643563" y="1224.0000000000002" width="116.53465346534654" height="78.46153846153847" as="geometry" />
        </mxCell>
        <mxCell id="ADbTayrC-Ze4ekN7dhju-28" style="edgeStyle=orthogonalEdgeStyle;rounded=0;orthogonalLoop=1;jettySize=auto;html=1;entryX=0.5;entryY=0;entryDx=0;entryDy=0;" parent="ADbTayrC-Ze4ekN7dhju-61" source="ADbTayrC-Ze4ekN7dhju-21" target="ADbTayrC-Ze4ekN7dhju-20" edge="1">
          <mxGeometry relative="1" as="geometry" />
        </mxCell>
        <mxCell id="ADbTayrC-Ze4ekN7dhju-21" value="&lt;font style=&quot;font-size: 14px;&quot;&gt;位置[key + k*k]&lt;br&gt;是空的&lt;/font&gt;" style="rhombus;whiteSpace=wrap;html=1;rounded=0;" parent="ADbTayrC-Ze4ekN7dhju-61" vertex="1">
          <mxGeometry x="99.31930693069307" y="1056.615384615385" width="119.18316831683167" height="115.0769230769231" as="geometry" />
        </mxCell>
        <mxCell id="ADbTayrC-Ze4ekN7dhju-25" style="edgeStyle=orthogonalEdgeStyle;rounded=0;orthogonalLoop=1;jettySize=auto;html=1;" parent="ADbTayrC-Ze4ekN7dhju-61" source="ADbTayrC-Ze4ekN7dhju-23" target="ADbTayrC-Ze4ekN7dhju-21" edge="1">
          <mxGeometry relative="1" as="geometry" />
        </mxCell>
        <mxCell id="ADbTayrC-Ze4ekN7dhju-23" value="&lt;font style=&quot;font-size: 14px;&quot;&gt;successful數++&lt;br&gt;順便計算每筆資料成功搜尋的次數&lt;/font&gt;" style="rounded=0;whiteSpace=wrap;html=1;" parent="ADbTayrC-Ze4ekN7dhju-61" vertex="1">
          <mxGeometry x="100.64356435643563" y="920.6153846153848" width="116.53465346534654" height="78.46153846153847" as="geometry" />
        </mxCell>
        <mxCell id="ADbTayrC-Ze4ekN7dhju-24" style="edgeStyle=orthogonalEdgeStyle;rounded=0;orthogonalLoop=1;jettySize=auto;html=1;entryX=0.5;entryY=0;entryDx=0;entryDy=0;" parent="ADbTayrC-Ze4ekN7dhju-61" source="ADbTayrC-Ze4ekN7dhju-16" target="ADbTayrC-Ze4ekN7dhju-23" edge="1">
          <mxGeometry relative="1" as="geometry" />
        </mxCell>
        <mxCell id="ADbTayrC-Ze4ekN7dhju-36" style="edgeStyle=orthogonalEdgeStyle;rounded=0;orthogonalLoop=1;jettySize=auto;html=1;entryX=1;entryY=0.5;entryDx=0;entryDy=0;" parent="ADbTayrC-Ze4ekN7dhju-61" source="ADbTayrC-Ze4ekN7dhju-26" target="ADbTayrC-Ze4ekN7dhju-16" edge="1">
          <mxGeometry relative="1" as="geometry">
            <Array as="points">
              <mxPoint x="455.54455445544556" y="1114.1538461538464" />
              <mxPoint x="455.54455445544556" y="810.7692307692308" />
            </Array>
          </mxGeometry>
        </mxCell>
        <mxCell id="ADbTayrC-Ze4ekN7dhju-26" value="&lt;font style=&quot;font-size: 14px;&quot;&gt;循環探勘的&lt;br&gt;位置是否重複&lt;/font&gt;" style="rhombus;whiteSpace=wrap;html=1;rounded=0;" parent="ADbTayrC-Ze4ekN7dhju-61" vertex="1">
          <mxGeometry x="304.049504950495" y="1056.615384615385" width="119.18316831683167" height="115.0769230769231" as="geometry" />
        </mxCell>
        <mxCell id="ADbTayrC-Ze4ekN7dhju-27" style="edgeStyle=orthogonalEdgeStyle;rounded=0;orthogonalLoop=1;jettySize=auto;html=1;entryX=0;entryY=0.5;entryDx=0;entryDy=0;" parent="ADbTayrC-Ze4ekN7dhju-61" source="ADbTayrC-Ze4ekN7dhju-21" target="ADbTayrC-Ze4ekN7dhju-26" edge="1">
          <mxGeometry relative="1" as="geometry" />
        </mxCell>
        <mxCell id="ADbTayrC-Ze4ekN7dhju-38" style="edgeStyle=orthogonalEdgeStyle;rounded=0;orthogonalLoop=1;jettySize=auto;html=1;entryX=0;entryY=0.5;entryDx=0;entryDy=0;" parent="ADbTayrC-Ze4ekN7dhju-61" source="ADbTayrC-Ze4ekN7dhju-32" target="ADbTayrC-Ze4ekN7dhju-4" edge="1">
          <mxGeometry relative="1" as="geometry">
            <Array as="points">
              <mxPoint x="363.3762376237624" y="1360.0000000000002" />
              <mxPoint y="1360.0000000000002" />
              <mxPoint y="334.7692307692308" />
            </Array>
          </mxGeometry>
        </mxCell>
        <mxCell id="ADbTayrC-Ze4ekN7dhju-32" value="&lt;font style=&quot;font-size: 14px;&quot;&gt;把資料放在Over_flow&lt;/font&gt;" style="rounded=0;whiteSpace=wrap;html=1;" parent="ADbTayrC-Ze4ekN7dhju-61" vertex="1">
          <mxGeometry x="305.3737623762376" y="1224.0000000000002" width="116.53465346534654" height="78.46153846153847" as="geometry" />
        </mxCell>
        <mxCell id="ADbTayrC-Ze4ekN7dhju-35" style="edgeStyle=orthogonalEdgeStyle;rounded=0;orthogonalLoop=1;jettySize=auto;html=1;entryX=0.5;entryY=0;entryDx=0;entryDy=0;" parent="ADbTayrC-Ze4ekN7dhju-61" source="ADbTayrC-Ze4ekN7dhju-26" target="ADbTayrC-Ze4ekN7dhju-32" edge="1">
          <mxGeometry relative="1" as="geometry" />
        </mxCell>
        <mxCell id="ADbTayrC-Ze4ekN7dhju-59" style="edgeStyle=orthogonalEdgeStyle;rounded=0;orthogonalLoop=1;jettySize=auto;html=1;entryX=0.5;entryY=0;entryDx=0;entryDy=0;" parent="ADbTayrC-Ze4ekN7dhju-61" source="ADbTayrC-Ze4ekN7dhju-41" target="WIyWlLk6GJQsqaUBKTNV-11" edge="1">
          <mxGeometry relative="1" as="geometry">
            <mxPoint x="683.3168316831684" y="1046.1538461538464" as="targetPoint" />
          </mxGeometry>
        </mxCell>
        <mxCell id="ADbTayrC-Ze4ekN7dhju-41" value="&lt;font style=&quot;font-size: 14px;&quot;&gt;For迴圈 [po++]&lt;br&gt;直到po&amp;lt;總table大小&lt;/font&gt;" style="rhombus;whiteSpace=wrap;html=1;rounded=0;" parent="ADbTayrC-Ze4ekN7dhju-61" vertex="1">
          <mxGeometry x="611.8069306930693" y="612.0000000000001" width="143.01980198019803" height="115.0769230769231" as="geometry" />
        </mxCell>
        <mxCell id="ADbTayrC-Ze4ekN7dhju-42" value="" style="edgeStyle=orthogonalEdgeStyle;rounded=0;orthogonalLoop=1;jettySize=auto;html=1;" parent="ADbTayrC-Ze4ekN7dhju-61" source="ADbTayrC-Ze4ekN7dhju-8" target="ADbTayrC-Ze4ekN7dhju-41" edge="1">
          <mxGeometry relative="1" as="geometry" />
        </mxCell>
        <mxCell id="ADbTayrC-Ze4ekN7dhju-44" value="&lt;font style=&quot;font-size: 14px;&quot;&gt;For迴圈[i=0;;i++]&lt;/font&gt;" style="rhombus;whiteSpace=wrap;html=1;rounded=0;" parent="ADbTayrC-Ze4ekN7dhju-61" vertex="1">
          <mxGeometry x="839.5792079207921" y="612.0000000000001" width="143.01980198019803" height="115.0769230769231" as="geometry" />
        </mxCell>
        <mxCell id="ADbTayrC-Ze4ekN7dhju-45" value="" style="edgeStyle=orthogonalEdgeStyle;rounded=0;orthogonalLoop=1;jettySize=auto;html=1;" parent="ADbTayrC-Ze4ekN7dhju-61" source="ADbTayrC-Ze4ekN7dhju-41" target="ADbTayrC-Ze4ekN7dhju-44" edge="1">
          <mxGeometry relative="1" as="geometry" />
        </mxCell>
        <mxCell id="ADbTayrC-Ze4ekN7dhju-56" style="edgeStyle=orthogonalEdgeStyle;rounded=0;orthogonalLoop=1;jettySize=auto;html=1;exitX=1;exitY=0.5;exitDx=0;exitDy=0;entryX=1;entryY=0.5;entryDx=0;entryDy=0;" parent="ADbTayrC-Ze4ekN7dhju-61" source="ADbTayrC-Ze4ekN7dhju-46" target="ADbTayrC-Ze4ekN7dhju-44" edge="1">
          <mxGeometry relative="1" as="geometry">
            <Array as="points">
              <mxPoint x="1070" y="936.3076923076926" />
              <mxPoint x="1070" y="669.5384615384615" />
            </Array>
          </mxGeometry>
        </mxCell>
        <mxCell id="ADbTayrC-Ze4ekN7dhju-46" value="&lt;font style=&quot;font-size: 14px;&quot;&gt;如果當前位置是否空的&lt;/font&gt;" style="rhombus;whiteSpace=wrap;html=1;rounded=0;" parent="ADbTayrC-Ze4ekN7dhju-61" vertex="1">
          <mxGeometry x="839.5792079207921" y="878.769230769231" width="143.01980198019803" height="115.0769230769231" as="geometry" />
        </mxCell>
        <mxCell id="ADbTayrC-Ze4ekN7dhju-60" style="edgeStyle=orthogonalEdgeStyle;rounded=0;orthogonalLoop=1;jettySize=auto;html=1;entryX=1;entryY=0.5;entryDx=0;entryDy=0;" parent="ADbTayrC-Ze4ekN7dhju-61" source="ADbTayrC-Ze4ekN7dhju-51" target="WIyWlLk6GJQsqaUBKTNV-11" edge="1">
          <mxGeometry relative="1" as="geometry" />
        </mxCell>
        <mxCell id="ADbTayrC-Ze4ekN7dhju-51" value="&lt;font style=&quot;font-size: 14px;&quot;&gt;unsuccessful數量減一&lt;br&gt;break&lt;/font&gt;" style="whiteSpace=wrap;html=1;rounded=0;" parent="ADbTayrC-Ze4ekN7dhju-61" vertex="1">
          <mxGeometry x="847.5247524752475" y="1056.615384615385" width="127.12871287128712" height="62.76923076923079" as="geometry" />
        </mxCell>
        <mxCell id="ADbTayrC-Ze4ekN7dhju-52" value="" style="edgeStyle=orthogonalEdgeStyle;rounded=0;orthogonalLoop=1;jettySize=auto;html=1;" parent="ADbTayrC-Ze4ekN7dhju-61" source="ADbTayrC-Ze4ekN7dhju-46" target="ADbTayrC-Ze4ekN7dhju-51" edge="1">
          <mxGeometry relative="1" as="geometry" />
        </mxCell>
        <mxCell id="ADbTayrC-Ze4ekN7dhju-55" value="" style="edgeStyle=orthogonalEdgeStyle;rounded=0;orthogonalLoop=1;jettySize=auto;html=1;" parent="ADbTayrC-Ze4ekN7dhju-61" source="ADbTayrC-Ze4ekN7dhju-53" target="ADbTayrC-Ze4ekN7dhju-46" edge="1">
          <mxGeometry relative="1" as="geometry" />
        </mxCell>
        <mxCell id="ADbTayrC-Ze4ekN7dhju-53" value="&lt;font style=&quot;font-size: 14px;&quot;&gt;unsuccessful數量加一&lt;/font&gt;" style="whiteSpace=wrap;html=1;rounded=0;" parent="ADbTayrC-Ze4ekN7dhju-61" vertex="1">
          <mxGeometry x="847.5247524752475" y="774.1538461538463" width="127.12871287128712" height="62.76923076923079" as="geometry" />
        </mxCell>
        <mxCell id="ADbTayrC-Ze4ekN7dhju-54" value="" style="edgeStyle=orthogonalEdgeStyle;rounded=0;orthogonalLoop=1;jettySize=auto;html=1;" parent="ADbTayrC-Ze4ekN7dhju-61" source="ADbTayrC-Ze4ekN7dhju-44" target="ADbTayrC-Ze4ekN7dhju-53" edge="1">
          <mxGeometry relative="1" as="geometry" />
        </mxCell>
        <mxCell id="ADbTayrC-Ze4ekN7dhju-62" value="&lt;font style=&quot;font-size: 15px;&quot;&gt;No&lt;/font&gt;" style="text;html=1;align=center;verticalAlign=middle;resizable=0;points=[];autosize=1;strokeColor=none;fillColor=none;fontSize=22;" parent="ADbTayrC-Ze4ekN7dhju-61" vertex="1">
          <mxGeometry x="240" y="290" width="40" height="40" as="geometry" />
        </mxCell>
        <mxCell id="ADbTayrC-Ze4ekN7dhju-63" value="YES" style="text;html=1;align=center;verticalAlign=middle;resizable=0;points=[];autosize=1;strokeColor=none;fillColor=none;fontSize=15;" parent="ADbTayrC-Ze4ekN7dhju-61" vertex="1">
          <mxGeometry x="155" y="420" width="50" height="30" as="geometry" />
        </mxCell>
        <mxCell id="ADbTayrC-Ze4ekN7dhju-64" value="&lt;span style=&quot;color: rgb(0, 0, 0); font-family: Helvetica; font-size: 15px; font-style: normal; font-variant-ligatures: normal; font-variant-caps: normal; font-weight: 400; letter-spacing: normal; orphans: 2; text-align: center; text-indent: 0px; text-transform: none; widows: 2; word-spacing: 0px; -webkit-text-stroke-width: 0px; background-color: rgb(251, 251, 251); text-decoration-thickness: initial; text-decoration-style: initial; text-decoration-color: initial; float: none; display: inline !important;&quot;&gt;YES&lt;/span&gt;" style="text;whiteSpace=wrap;html=1;fontSize=15;" parent="ADbTayrC-Ze4ekN7dhju-61" vertex="1">
          <mxGeometry x="170" y="580" width="60" height="40" as="geometry" />
        </mxCell>
        <mxCell id="ADbTayrC-Ze4ekN7dhju-65" value="&lt;span style=&quot;color: rgb(0, 0, 0); font-family: Helvetica; font-size: 15px; font-style: normal; font-variant-ligatures: normal; font-variant-caps: normal; font-weight: 400; letter-spacing: normal; orphans: 2; text-align: center; text-indent: 0px; text-transform: none; widows: 2; word-spacing: 0px; -webkit-text-stroke-width: 0px; background-color: rgb(251, 251, 251); text-decoration-thickness: initial; text-decoration-style: initial; text-decoration-color: initial; float: none; display: inline !important;&quot;&gt;YES&lt;/span&gt;" style="text;whiteSpace=wrap;html=1;fontSize=15;" parent="ADbTayrC-Ze4ekN7dhju-61" vertex="1">
          <mxGeometry x="162.48" y="880.62" width="60" height="40" as="geometry" />
        </mxCell>
        <mxCell id="ADbTayrC-Ze4ekN7dhju-66" value="&lt;span style=&quot;color: rgb(0, 0, 0); font-family: Helvetica; font-size: 15px; font-style: normal; font-variant-ligatures: normal; font-variant-caps: normal; font-weight: 400; letter-spacing: normal; orphans: 2; text-align: center; text-indent: 0px; text-transform: none; widows: 2; word-spacing: 0px; -webkit-text-stroke-width: 0px; background-color: rgb(251, 251, 251); text-decoration-thickness: initial; text-decoration-style: initial; text-decoration-color: initial; float: none; display: inline !important;&quot;&gt;YES&lt;/span&gt;" style="text;whiteSpace=wrap;html=1;fontSize=15;" parent="ADbTayrC-Ze4ekN7dhju-61" vertex="1">
          <mxGeometry x="170" y="1180" width="60" height="40" as="geometry" />
        </mxCell>
        <mxCell id="ADbTayrC-Ze4ekN7dhju-67" value="&lt;font style=&quot;font-size: 15px;&quot;&gt;No&lt;/font&gt;" style="text;html=1;align=center;verticalAlign=middle;resizable=0;points=[];autosize=1;strokeColor=none;fillColor=none;fontSize=22;" parent="ADbTayrC-Ze4ekN7dhju-61" vertex="1">
          <mxGeometry x="240" y="1070" width="40" height="40" as="geometry" />
        </mxCell>
        <mxCell id="ADbTayrC-Ze4ekN7dhju-68" value="&lt;span style=&quot;color: rgb(0, 0, 0); font-family: Helvetica; font-size: 15px; font-style: normal; font-variant-ligatures: normal; font-variant-caps: normal; font-weight: 400; letter-spacing: normal; orphans: 2; text-align: center; text-indent: 0px; text-transform: none; widows: 2; word-spacing: 0px; -webkit-text-stroke-width: 0px; background-color: rgb(251, 251, 251); text-decoration-thickness: initial; text-decoration-style: initial; text-decoration-color: initial; float: none; display: inline !important;&quot;&gt;YES&lt;/span&gt;" style="text;whiteSpace=wrap;html=1;fontSize=15;" parent="ADbTayrC-Ze4ekN7dhju-61" vertex="1">
          <mxGeometry x="370" y="1180" width="60" height="40" as="geometry" />
        </mxCell>
        <mxCell id="ADbTayrC-Ze4ekN7dhju-70" value="&lt;font style=&quot;font-size: 15px;&quot;&gt;No&lt;/font&gt;" style="text;html=1;align=center;verticalAlign=middle;resizable=0;points=[];autosize=1;strokeColor=none;fillColor=none;fontSize=22;" parent="ADbTayrC-Ze4ekN7dhju-61" vertex="1">
          <mxGeometry x="414" y="1070" width="40" height="40" as="geometry" />
        </mxCell>
        <mxCell id="ADbTayrC-Ze4ekN7dhju-71" value="&lt;font style=&quot;font-size: 15px;&quot;&gt;No&lt;/font&gt;" style="text;html=1;align=center;verticalAlign=middle;resizable=0;points=[];autosize=1;strokeColor=none;fillColor=none;fontSize=22;" parent="ADbTayrC-Ze4ekN7dhju-61" vertex="1">
          <mxGeometry x="640" y="727.0799999999999" width="40" height="40" as="geometry" />
        </mxCell>
        <mxCell id="ADbTayrC-Ze4ekN7dhju-72" value="&lt;span style=&quot;color: rgb(0, 0, 0); font-family: Helvetica; font-size: 15px; font-style: normal; font-variant-ligatures: normal; font-variant-caps: normal; font-weight: 400; letter-spacing: normal; orphans: 2; text-align: center; text-indent: 0px; text-transform: none; widows: 2; word-spacing: 0px; -webkit-text-stroke-width: 0px; background-color: rgb(251, 251, 251); text-decoration-thickness: initial; text-decoration-style: initial; text-decoration-color: initial; float: none; display: inline !important;&quot;&gt;YES&lt;/span&gt;" style="text;whiteSpace=wrap;html=1;fontSize=15;" parent="ADbTayrC-Ze4ekN7dhju-61" vertex="1">
          <mxGeometry x="760" y="639.08" width="60" height="40" as="geometry" />
        </mxCell>
        <mxCell id="ADbTayrC-Ze4ekN7dhju-73" value="&lt;span style=&quot;color: rgb(0, 0, 0); font-family: Helvetica; font-size: 15px; font-style: normal; font-variant-ligatures: normal; font-variant-caps: normal; font-weight: 400; letter-spacing: normal; orphans: 2; text-align: center; text-indent: 0px; text-transform: none; widows: 2; word-spacing: 0px; -webkit-text-stroke-width: 0px; background-color: rgb(251, 251, 251); text-decoration-thickness: initial; text-decoration-style: initial; text-decoration-color: initial; float: none; display: inline !important;&quot;&gt;YES&lt;/span&gt;" style="text;whiteSpace=wrap;html=1;fontSize=15;" parent="ADbTayrC-Ze4ekN7dhju-61" vertex="1">
          <mxGeometry x="860" y="727.08" width="60" height="40" as="geometry" />
        </mxCell>
        <mxCell id="ADbTayrC-Ze4ekN7dhju-74" value="&lt;span style=&quot;color: rgb(0, 0, 0); font-family: Helvetica; font-size: 15px; font-style: normal; font-variant-ligatures: normal; font-variant-caps: normal; font-weight: 400; letter-spacing: normal; orphans: 2; text-align: center; text-indent: 0px; text-transform: none; widows: 2; word-spacing: 0px; -webkit-text-stroke-width: 0px; background-color: rgb(251, 251, 251); text-decoration-thickness: initial; text-decoration-style: initial; text-decoration-color: initial; float: none; display: inline !important;&quot;&gt;YES&lt;/span&gt;" style="text;whiteSpace=wrap;html=1;fontSize=15;" parent="ADbTayrC-Ze4ekN7dhju-61" vertex="1">
          <mxGeometry x="914.65" y="1010" width="60" height="40" as="geometry" />
        </mxCell>
        <mxCell id="ADbTayrC-Ze4ekN7dhju-75" value="&lt;font style=&quot;font-size: 15px;&quot;&gt;No&lt;/font&gt;" style="text;html=1;align=center;verticalAlign=middle;resizable=0;points=[];autosize=1;strokeColor=none;fillColor=none;fontSize=22;" parent="ADbTayrC-Ze4ekN7dhju-61" vertex="1">
          <mxGeometry x="990" y="899.9999999999999" width="40" height="40" as="geometry" />
        </mxCell>
      </root>
    </mxGraphModel>
  </diagram>
</mxfile>
